<?xml version="1.0" encoding="UTF-8"?>
<svg id="Layer_1" xmlns="http://www.w3.org/2000/svg" version="1.1" viewBox="0 0 1000 500">
  <!-- Generator: Adobe Illustrator 29.8.1, SVG Export Plug-In . SVG Version: 2.1.1 Build 2)  -->
  <defs>
    <style>
      .st0 {
        fill: #1d2939;
      }

      .st1 {
        fill: #fd6263;
      }
    </style>
  </defs>
  <g id="LOGO">
    <path class="st0" d="M818.52,332.14c-12.25,0-22.92-3.15-32.02-9.46-9.1-6.3-16.19-14.71-21.26-25.22-4.9-10.68-7.35-22.42-7.35-35.2s2.8-25.04,8.4-35.72c5.77-10.68,14-19.09,24.67-25.22,10.67-6.3,23.45-9.46,38.32-9.46s27.74,3.15,38.06,9.46c10.32,6.3,18.2,14.8,23.62,25.48,5.42,10.68,8.14,22.5,8.14,35.46v66.72h-35.96v-22.33h-.52c-2.62,4.73-5.95,9.02-9.97,12.87-3.85,3.85-8.57,6.92-14.17,9.19-5.6,2.28-12.25,3.42-19.95,3.42h0ZM828.76,301.41c7,0,13.04-1.75,18.11-5.25,5.08-3.5,8.92-8.23,11.55-14.18,2.8-6.13,4.2-12.87,4.2-20.23s-1.4-13.92-4.2-19.7c-2.63-5.95-6.47-10.68-11.55-14.18-5.07-3.5-11.11-5.25-18.11-5.25s-13.39,1.75-18.64,5.25c-5.08,3.5-9.01,8.23-11.81,14.18-2.62,5.78-3.94,12.35-3.94,19.7s1.31,14.1,3.94,20.23c2.8,5.95,6.74,10.68,11.81,14.18,5.25,3.5,11.46,5.25,18.64,5.25h0Z"/>
    <path class="st0" d="M732.95,328.99c-11.9,0-21.26-3.42-28.09-10.24-6.65-6.83-9.97-16.11-9.97-27.84v-153.67h35.96v152.62c0,2.28.79,4.29,2.36,6.04,1.75,1.58,3.76,2.37,6.04,2.37h8.14v30.73h-14.44Z"/>
    <path class="st0" d="M605.23,332.14c-13.82,0-26.16-3.06-37.01-9.19-10.85-6.3-19.42-14.71-25.72-25.22-6.3-10.68-9.45-22.59-9.45-35.73s3.15-24.95,9.45-35.46c6.3-10.68,14.87-19.09,25.72-25.22,10.85-6.3,23.18-9.46,37.01-9.46s26.16,3.15,37.01,9.46c10.85,6.13,19.42,14.54,25.72,25.22,6.3,10.51,9.45,22.33,9.45,35.46s-3.15,25.04-9.45,35.73c-6.3,10.51-14.87,18.91-25.72,25.22-10.85,6.13-23.18,9.19-37.01,9.19h0ZM605.23,301.41c7.35,0,13.65-1.75,18.9-5.25,5.42-3.5,9.54-8.23,12.34-14.18,2.98-5.95,4.46-12.61,4.46-19.96s-1.49-14.01-4.46-19.96c-2.8-5.95-6.91-10.68-12.34-14.18-5.25-3.5-11.55-5.25-18.9-5.25s-13.74,1.75-19.16,5.25c-5.25,3.5-9.36,8.23-12.34,14.18-2.8,5.95-4.2,12.61-4.2,19.96s1.4,14.01,4.2,19.96c2.97,5.95,7.09,10.68,12.34,14.18,5.42,3.5,11.81,5.25,19.16,5.25h0Z"/>
    <path class="st0" d="M383.98,328.99v-76.97c0-11.03,2.54-21.1,7.61-30.21,5.25-9.11,12.77-16.37,22.57-21.8,9.8-5.43,21.52-8.14,35.17-8.14s25.55,2.71,35.17,8.14c9.8,5.43,17.24,12.7,22.31,21.8,5.25,9.11,7.87,19.18,7.87,30.21v76.97h-35.96v-76.97c0-5.43-1.31-10.33-3.94-14.71-2.62-4.55-6.21-8.14-10.76-10.77-4.37-2.63-9.27-3.94-14.7-3.94s-10.41,1.31-14.96,3.94c-4.38,2.63-7.87,6.22-10.5,10.77-2.62,4.38-3.94,9.28-3.94,14.71v76.97h-35.96Z"/>
    <path class="st1" d="M211.35,191.53c0,30.5-24.72,55.22-55.23,55.22s-55.22-24.72-55.22-55.22,24.72-55.23,55.22-55.23,55.23,24.72,55.23,55.23h0Z"/>
    <path class="st1" d="M217.84,191.53c0-30.5,24.72-55.23,55.22-55.23s55.22,24.72,55.22,55.23-24.72,55.22-55.22,55.22h-55.22v-55.22h0Z"/>
    <path class="st1" d="M100.9,308.47c0-30.5,24.72-55.23,55.22-55.23h55.23v55.23c0,30.5-24.72,55.23-55.23,55.23s-55.22-24.72-55.22-55.23h0Z"/>
    <path class="st1" d="M328.29,308.47c0,30.5-24.72,55.23-55.22,55.23s-55.22-24.72-55.22-55.23,24.72-55.23,55.22-55.23,55.22,24.72,55.22,55.23h0Z"/>
  </g>
</svg>