<?xml version="1.0" encoding="UTF-8"?>
<svg id="Layer_1" xmlns="http://www.w3.org/2000/svg" version="1.1" viewBox="0 0 500 500">
  <!-- Generator: Adobe Illustrator 29.8.1, SVG Export Plug-In . SVG Version: 2.1.1 Build 2)  -->
  <defs>
    <style>
      .st0 {
        fill: #fd6263;
      }
    </style>
  </defs>
  <path class="st0" d="M246.75,191.53c0,30.5-24.72,55.22-55.23,55.22s-55.22-24.72-55.22-55.22,24.72-55.23,55.22-55.23,55.23,24.72,55.23,55.23h0Z"/>
  <path class="st0" d="M253.25,191.53c0-30.5,24.72-55.23,55.22-55.23s55.22,24.72,55.22,55.23-24.72,55.22-55.22,55.22h-55.22v-55.22h0Z"/>
  <path class="st0" d="M136.3,308.47c0-30.5,24.72-55.23,55.22-55.23h55.23v55.23c0,30.5-24.72,55.23-55.23,55.23s-55.22-24.72-55.22-55.23h0Z"/>
  <path class="st0" d="M363.7,308.47c0,30.5-24.72,55.23-55.22,55.23s-55.22-24.72-55.22-55.23,24.72-55.23,55.22-55.23,55.22,24.72,55.22,55.23h0Z"/>
</svg>